<svg width="112" height="112" viewBox="0 0 112 112" fill="none" xmlns="http://www.w3.org/2000/svg">
<rect width="112" height="112" fill="black"/>
<rect x="6" y="6" width="100" height="100" fill="white"/>
<path d="M20.3693 91.3182V38.8182H26.0369V44.8835H26.733C27.1638 44.2206 27.7604 43.3755 28.5227 42.348C29.3016 41.304 30.4119 40.3759 31.8537 39.5639C33.312 38.7353 35.2841 38.321 37.7699 38.321C40.9848 38.321 43.8187 39.1248 46.2713 40.7322C48.724 42.3397 50.638 44.6184 52.0135 47.5682C53.389 50.518 54.0767 53.9981 54.0767 58.0085C54.0767 62.0521 53.389 65.5571 52.0135 68.5234C50.638 71.4732 48.7322 73.7602 46.2962 75.3842C43.8601 76.9917 41.0511 77.7955 37.8693 77.7955C35.4167 77.7955 33.4529 77.3894 31.978 76.5774C30.5031 75.7488 29.3679 74.8125 28.5724 73.7685C27.777 72.7079 27.1638 71.8295 26.733 71.1335H26.2358V91.3182H20.3693ZM26.1364 57.9091C26.1364 60.7926 26.5589 63.3364 27.4041 65.5405C28.2493 67.728 29.4839 69.4432 31.108 70.6861C32.732 71.9124 34.7206 72.5256 37.0739 72.5256C39.5265 72.5256 41.5732 71.8793 43.2138 70.5866C44.871 69.2775 46.1139 67.5208 46.9425 65.3168C47.7876 63.0961 48.2102 60.6269 48.2102 57.9091C48.2102 55.2244 47.7959 52.8049 46.9673 50.6506C46.1553 48.4796 44.9207 46.7644 43.2635 45.505C41.6229 44.2289 39.5597 43.5909 37.0739 43.5909C34.6875 43.5909 32.6823 44.1958 31.0582 45.4055C29.4342 46.5987 28.2079 48.2725 27.3793 50.4268C26.5507 52.5646 26.1364 55.0587 26.1364 57.9091Z" fill="black"/>
<path d="M74.7869 77.7955C71.6051 77.7955 68.7962 76.9917 66.3601 75.3842C63.924 73.7602 62.0182 71.4732 60.6428 68.5234C59.2673 65.5571 58.5795 62.0521 58.5795 58.0085C58.5795 53.9981 59.2673 50.518 60.6428 47.5682C62.0182 44.6184 63.9323 42.3397 66.3849 40.7322C68.8376 39.1248 71.6714 38.321 74.8864 38.321C77.3722 38.321 79.3359 38.7353 80.7777 39.5639C82.236 40.3759 83.3464 41.304 84.1087 42.348C84.8875 43.3755 85.4924 44.2206 85.9233 44.8835H86.4205V26.0909H92.2869V77H86.6193V71.1335H85.9233C85.4924 71.8295 84.8793 72.7079 84.0838 73.7685C83.2884 74.8125 82.1532 75.7488 80.6783 76.5774C79.2034 77.3894 77.2396 77.7955 74.7869 77.7955ZM75.5824 72.5256C77.9356 72.5256 79.9242 71.9124 81.5483 70.6861C83.1723 69.4432 84.407 67.728 85.2521 65.5405C86.0973 63.3364 86.5199 60.7926 86.5199 57.9091C86.5199 55.0587 86.1056 52.5646 85.277 50.4268C84.4484 48.2725 83.2221 46.5987 81.598 45.4055C79.974 44.1958 77.9688 43.5909 75.5824 43.5909C73.0966 43.5909 71.0251 44.2289 69.3679 45.505C67.7273 46.7644 66.4927 48.4796 65.6641 50.6506C64.852 52.8049 64.446 55.2244 64.446 57.9091C64.446 60.6269 64.8603 63.0961 65.6889 65.3168C66.5341 67.5208 67.777 69.2775 69.4176 70.5866C71.0748 71.8793 73.1297 72.5256 75.5824 72.5256Z" fill="black"/>
<circle cx="43" cy="63" r="6" fill="black"/>
<path d="M74 72.5C74 77.1413 72.1563 81.5925 68.8744 84.8744C65.5925 88.1563 61.1413 90 56.5 90C51.8587 90 47.4075 88.1563 44.1256 84.8744C40.8437 81.5925 39 77.1413 39 72.5L45.028 72.5C45.028 75.5426 46.2366 78.4605 48.388 80.612C50.5395 82.7634 53.4574 83.972 56.5 83.972C59.5426 83.972 62.4605 82.7634 64.612 80.612C66.7634 78.4605 67.972 75.5426 67.972 72.5H74Z" fill="black"/>
<circle cx="81" cy="63" r="6" fill="black"/>
</svg>
